Motion_pl02
version=1
nRows=10
nColumns=43
inDegrees=yes
endheader
time	pelvis_tilt	pelvis_list	pelvis_rotation	pelvis_tx	pelvis_ty	pelvis_tz	hip_flexion_r	hip_adduction_r	hip_rotation_r	knee_angle_r	ankle_angle_r	subtalar_angle_r	mtp_angle_r	hip_flexion_l	hip_adduction_l	hip_rotation_l	knee_angle_l	ankle_angle_l	subtalar_angle_l	mtp_angle_l	lumbar_extension	lumbar_bending	lumbar_rotation	neck_flexion	neck_lateral_bending	neck_rotation	arm_flex_r	arm_add_r	arm_rot_r	elbow_flex_r	pro_sup_r	wrist_flex_r	wrist_dev_r	hand_finger_flex_r	arm_flex_l	arm_add_l	arm_rot_l	elbow_flex_l	pro_sup_l	wrist_flex_l	wrist_dev_l	hand_finger_flex_l
      0.82000000	     -3.39667761	      1.29263256	     91.16037699	      0.01216775	      1.64699041	      0.98374440	     40.62232097	     -5.33990667	     -7.86690867	    -45.46890155	    -23.71365258	     -0.83729275	     16.10111916	     35.67551542	     -0.50474182	    -13.95911032	    -48.85532552	    -22.23168476	    -16.62661880	     10.29389927	    -47.19822767	     -3.79982051	     -1.96589993	    -11.11700684	      0.55217201	     -2.09774259	     12.62937051	    -47.38789055	     15.86279861	     95.40948445	     90.38258031	    -30.77699097	     -2.92888351	     41.35752322	     20.63375090	    -53.02546181	      7.56862203	     94.19651024	    104.53539201	    -16.76724128	     16.01396041	     81.00734171
      0.82250000	     -3.35640127	      1.62347364	     91.21975887	      0.01224370	      1.64106873	      0.97765845	     40.02652658	     -5.28647491	     -8.02379208	    -44.90652651	    -23.93296355	     -0.78644029	     16.06033525	     35.09182682	     -0.58100397	    -14.06131109	    -48.24438894	    -22.46142927	    -16.54494656	     10.32112290	    -47.29650487	     -3.74796257	     -2.09571373	    -11.42953302	      0.49493706	     -1.99176901	     10.18201561	    -47.21563525	     14.60329057	     95.18583353	     90.96745595	    -30.18081348	     -3.25042735	     41.61861366	     17.94381653	    -53.36973132	      6.14750471	     94.32058225	    104.86407468	    -16.65705557	     15.84224919	     81.20888776
      0.82500000	     -3.29176973	      1.95053124	     91.31189856	      0.01223601	      1.63515510	      0.97151849	     39.41827341	     -5.22975348	     -8.18869032	    -44.32274476	    -24.13694063	     -0.74857126	     16.03176721	     34.47548405	     -0.66343913	    -14.17504908	    -47.55112179	    -22.67496943	    -16.43832333	     10.41417791	    -47.34826332	     -3.66084588	     -2.23733088	    -11.82845273	      0.45028694	     -1.84066644	      7.89290602	    -46.93058776	     13.42992904	     94.77369759	     91.58592789	    -29.61758428	     -3.48862961	     41.78988175	     15.23908429	    -53.57219974	      4.67506836	     94.37946227	    105.14922083	    -16.50876789	     15.65662047	     81.40426059
      0.82750000	     -3.25504813	      2.24256721	     91.37113268	      0.01224765	      1.62904435	      0.96539482	     38.84446519	     -5.18566667	     -8.35431556	    -43.73299212	    -24.32037664	     -0.74102420	     16.00744723	     33.91459267	     -0.71865832	    -14.25081903	    -46.90087203	    -22.86872017	    -16.33714682	     10.53352461	    -47.35994804	     -3.61841864	     -2.34285036	    -12.23904342	      0.43974314	     -1.69057352	      5.56304171	    -46.72631959	     12.32809003	     94.43672242	     91.98934182	    -29.32399047	     -3.69802888	     41.88907007	     12.58647300	    -53.70307847	      3.25290477	     94.39504566	    105.27370129	    -16.45179477	     15.52900507	     81.57237835
      0.83000000	     -3.21379295	      2.53440159	     91.42169241	      0.01221893	      1.62286398	      0.95927230	     38.26411707	     -5.13915157	     -8.52142698	    -43.14301999	    -24.48558315	     -0.74599043	     15.98498634	     33.34926864	     -0.77148469	    -14.32047797	    -46.24346676	    -23.04169020	    -16.24123811	     10.67078388	    -47.37326429	     -3.56891943	     -2.43810038	    -12.62369548	      0.42758089	     -1.54400896	      3.26641023	    -46.50996748	     11.24280943	     94.08539612	     92.33360551	    -29.08957131	     -3.90038867	     42.01765846	      9.92932562	    -53.78199373	      1.83044978	     94.37934979	    105.36244016	    -16.44271221	     15.40654358	     81.74084017
      0.83250000	     -3.16729604	      2.79718937	     91.49662165	      0.01209246	      1.61660952	      0.95309301	     37.70944360	     -5.09244286	     -8.68520308	    -42.57387252	    -24.63823326	     -0.75824166	     15.95829430	     32.79444714	     -0.81727047	    -14.41986000	    -45.53965320	    -23.20972556	    -16.15351248	     10.78800800	    -47.33065081	     -3.49777062	     -2.50776582	    -13.07871077	      0.43173001	     -1.41482463	      0.98488671	    -46.25002874	     10.17182290	     93.64358624	     92.56349633	    -28.98493985	     -4.03270687	     42.13914169	      7.36481959	    -53.73181593	      0.48398970	     94.31219919	    105.39026363	    -16.48258472	     15.31776732	     81.90400534
      0.83500000	     -3.10386678	      3.20029730	     91.55935667	      0.01219610	      1.61036602	      0.94693696	     37.02502376	     -5.01065451	     -8.82676868	    -42.04822647	    -24.80498943	     -0.74361633	     15.93796748	     32.14524665	     -0.90749268	    -14.44726383	    -44.96501106	    -23.37805835	    -16.05730897	     11.01498221	    -47.47773617	     -3.41708813	     -2.70249701	    -13.36246550	      0.31196881	     -1.22702774	     -1.11943189	    -45.97979842	      9.18700811	     93.30207509	     93.04194041	    -28.51083059	     -4.22959230	     42.39844102	      4.43217403	    -53.84685420	     -1.19726589	     94.38337789	    105.56442756	    -16.45708673	     15.05584979	     82.11333231
      0.83750000	     -3.08130159	      3.38727837	     91.62923617	      0.01212217	      1.60381040	      0.94069006	     36.56896004	     -4.97709756	     -8.95787790	    -41.52277858	    -24.98368168	     -0.72888001	     15.89633569	     31.69841632	     -0.94181405	    -14.53896887	    -44.31832172	    -23.60200629	    -15.98353500	     11.04601335	    -47.23167708	     -3.38339548	     -2.72879016	    -14.33178517	      0.32986356	     -1.16851215	     -3.27723187	    -45.67041328	      8.31186121	     92.71163935	     92.99681497	    -28.69863222	     -4.17010308	     42.41399097	      2.23341330	    -53.78658963	     -2.02343506	     94.03492669	    105.50724480	    -16.49343250	     15.12249178	     82.23671623
      0.84000000	     -3.00251901	      3.95956895	     91.71348744	      0.01208789	      1.59793954	      0.93442704	     35.61232808	     -4.89672692	     -9.18280267	    -40.89826759	    -25.07917369	     -0.69000978	     15.88293466	     30.76970811	     -1.03031876	    -14.62158447	    -43.57269060	    -23.76136007	    -15.87939707	     11.57692568	    -47.61523180	     -3.23622519	     -3.20509625	    -14.31650303	      0.11630695	     -0.69915118	     -4.79212045	    -45.31714058	      7.62747811	     92.17013252	     93.85469583	    -27.45798704	     -4.31694216	     42.86869227	     -1.47450157	    -53.58151088	     -4.74396174	     94.26173574	    105.91002620	    -16.37565418	     14.41044742	     82.48945534
      0.84250000	     -2.98910772	      4.07845440	     91.77724287	      0.01194121	      1.59097204	      0.92832489	     35.26903922	     -4.87597736	     -9.26856833	    -40.44793985	    -25.19479601	     -0.68425424	     15.85279463	     30.42573852	     -1.05294226	    -14.72199046	    -42.96916682	    -23.93723397	    -15.85472109	     11.68728463	    -47.40349016	     -3.19563635	     -3.24532894	    -14.74789636	      0.10426028	     -0.61080452	     -7.09930402	    -45.04582679	      6.59510818	     91.82983107	     93.69020453	    -27.69059655	     -4.32809228	     42.82451511	     -3.85745943	    -53.35961708	     -5.90678281	     94.09411123	    105.81507440	    -16.40780454	     14.41734381	     82.60640876
